name C:\Users\u0101727\Documents\MyRepositories\upper-imu-dc\OpenSim\subject0\MA\ResultsMA\grid_4nodes_9dim\angles_4.mot
datacolumns 10
datarows 33
range 425.01000000 425.33000000
endheader 
time	clav_prot	clav_elev	scapula_abduction	scapula_elevation	scapula_upward_rot	scapula_winging	plane_elv	shoulder_elv	axial_rot	
        425.01000000	        -50.00000000	          0.00000000	        -40.00000000	        -10.00000000	         60.00000000	        -10.00000000	         30.00000000	         63.33333333	        -90.00000000	
        425.02000000	        -38.33333333	          0.00000000	        -40.00000000	        -10.00000000	         60.00000000	        -10.00000000	         30.00000000	         63.33333333	        -90.00000000	
        425.03000000	        -26.66666667	          0.00000000	        -40.00000000	        -10.00000000	         60.00000000	        -10.00000000	         30.00000000	         63.33333333	        -90.00000000	
        425.04000000	        -15.00000000	          0.00000000	        -40.00000000	        -10.00000000	         60.00000000	        -10.00000000	         30.00000000	         63.33333333	        -90.00000000	
        425.05000000	        -50.00000000	         10.00000000	        -40.00000000	        -10.00000000	         60.00000000	        -10.00000000	         30.00000000	         63.33333333	        -90.00000000	
        425.06000000	        -38.33333333	         10.00000000	        -40.00000000	        -10.00000000	         60.00000000	        -10.00000000	         30.00000000	         63.33333333	        -90.00000000	
        425.07000000	        -26.66666667	         10.00000000	        -40.00000000	        -10.00000000	         60.00000000	        -10.00000000	         30.00000000	         63.33333333	        -90.00000000	
        425.08000000	        -15.00000000	         10.00000000	        -40.00000000	        -10.00000000	         60.00000000	        -10.00000000	         30.00000000	         63.33333333	        -90.00000000	
        425.09000000	        -50.00000000	         20.00000000	        -40.00000000	        -10.00000000	         60.00000000	        -10.00000000	         30.00000000	         63.33333333	        -90.00000000	
        425.10000000	        -38.33333333	         20.00000000	        -40.00000000	        -10.00000000	         60.00000000	        -10.00000000	         30.00000000	         63.33333333	        -90.00000000	
        425.11000000	        -26.66666667	         20.00000000	        -40.00000000	        -10.00000000	         60.00000000	        -10.00000000	         30.00000000	         63.33333333	        -90.00000000	
        425.12000000	        -15.00000000	         20.00000000	        -40.00000000	        -10.00000000	         60.00000000	        -10.00000000	         30.00000000	         63.33333333	        -90.00000000	
        425.13000000	        -50.00000000	        -10.00000000	        -21.66666667	        -10.00000000	         60.00000000	        -10.00000000	         30.00000000	         63.33333333	        -90.00000000	
        425.14000000	        -38.33333333	        -10.00000000	        -21.66666667	        -10.00000000	         60.00000000	        -10.00000000	         30.00000000	         63.33333333	        -90.00000000	
        425.15000000	        -26.66666667	        -10.00000000	        -21.66666667	        -10.00000000	         60.00000000	        -10.00000000	         30.00000000	         63.33333333	        -90.00000000	
        425.16000000	        -15.00000000	        -10.00000000	        -21.66666667	        -10.00000000	         60.00000000	        -10.00000000	         30.00000000	         63.33333333	        -90.00000000	
        425.17000000	        -50.00000000	          0.00000000	        -21.66666667	        -10.00000000	         60.00000000	        -10.00000000	         30.00000000	         63.33333333	        -90.00000000	
        425.18000000	        -38.33333333	          0.00000000	        -21.66666667	        -10.00000000	         60.00000000	        -10.00000000	         30.00000000	         63.33333333	        -90.00000000	
        425.19000000	        -26.66666667	          0.00000000	        -21.66666667	        -10.00000000	         60.00000000	        -10.00000000	         30.00000000	         63.33333333	        -90.00000000	
        425.20000000	        -15.00000000	          0.00000000	        -21.66666667	        -10.00000000	         60.00000000	        -10.00000000	         30.00000000	         63.33333333	        -90.00000000	
        425.21000000	        -50.00000000	         10.00000000	        -21.66666667	        -10.00000000	         60.00000000	        -10.00000000	         30.00000000	         63.33333333	        -90.00000000	
        425.22000000	        -38.33333333	         10.00000000	        -21.66666667	        -10.00000000	         60.00000000	        -10.00000000	         30.00000000	         63.33333333	        -90.00000000	
        425.23000000	        -26.66666667	         10.00000000	        -21.66666667	        -10.00000000	         60.00000000	        -10.00000000	         30.00000000	         63.33333333	        -90.00000000	
        425.24000000	        -15.00000000	         10.00000000	        -21.66666667	        -10.00000000	         60.00000000	        -10.00000000	         30.00000000	         63.33333333	        -90.00000000	
        425.25000000	        -50.00000000	         20.00000000	        -21.66666667	        -10.00000000	         60.00000000	        -10.00000000	         30.00000000	         63.33333333	        -90.00000000	
        425.26000000	        -38.33333333	         20.00000000	        -21.66666667	        -10.00000000	         60.00000000	        -10.00000000	         30.00000000	         63.33333333	        -90.00000000	
        425.27000000	        -26.66666667	         20.00000000	        -21.66666667	        -10.00000000	         60.00000000	        -10.00000000	         30.00000000	         63.33333333	        -90.00000000	
        425.28000000	        -15.00000000	         20.00000000	        -21.66666667	        -10.00000000	         60.00000000	        -10.00000000	         30.00000000	         63.33333333	        -90.00000000	
        425.29000000	        -50.00000000	        -10.00000000	         -3.33333333	        -10.00000000	         60.00000000	        -10.00000000	         30.00000000	         63.33333333	        -90.00000000	
        425.30000000	        -38.33333333	        -10.00000000	         -3.33333333	        -10.00000000	         60.00000000	        -10.00000000	         30.00000000	         63.33333333	        -90.00000000	
        425.31000000	        -26.66666667	        -10.00000000	         -3.33333333	        -10.00000000	         60.00000000	        -10.00000000	         30.00000000	         63.33333333	        -90.00000000	
        425.32000000	        -15.00000000	        -10.00000000	         -3.33333333	        -10.00000000	         60.00000000	        -10.00000000	         30.00000000	         63.33333333	        -90.00000000	
        425.33000000	        -50.00000000	          0.00000000	         -3.33333333	        -10.00000000	         60.00000000	        -10.00000000	         30.00000000	         63.33333333	        -90.00000000	
